<?xml version="1.0" standalone="no"?><!DOCTYPE svg PUBLIC "-//W3C//DTD SVG 1.1//EN" "http://www.w3.org/Graphics/SVG/1.1/DTD/svg11.dtd"><svg t="1504728973222" class="icon" style="" viewBox="0 0 1366 1024" version="1.1" xmlns="http://www.w3.org/2000/svg" p-id="2344" xmlns:xlink="http://www.w3.org/1999/xlink" width="266.796875" height="200"><defs><style type="text/css"></style></defs><path d="M1167.058824 926.117647 933.647059 692.705882c55.717647-72.282353 88.847059-162.635294 88.847059-260.517647 0-233.411765-189.741176-424.658824-424.658824-424.658824-233.411765 0-424.658824 189.741176-424.658824 424.658824 0 234.917647 189.741176 424.658824 424.658824 424.658824 97.882353 0 188.235294-33.129412 260.517647-88.847059l231.905882 231.905882c10.541176 10.541176 24.094118 15.058824 37.647059 15.058824 13.552941 0 27.105882-4.517647 37.647059-15.058824C1186.635294 980.329412 1186.635294 947.2 1167.058824 926.117647L1167.058824 926.117647zM281.6 433.694118c0-174.682353 143.058824-317.741176 317.741176-317.741176 176.188235 0 317.741176 143.058824 317.741176 317.741176 0 174.682353-143.058824 317.741176-317.741176 317.741176C423.152941 751.435294 281.6 608.376471 281.6 433.694118L281.6 433.694118zM281.6 433.694118" p-id="2345"></path></svg>